#!OML:ASF G:\JayActor3\Patient Classification 1\Patient 1\Session 6\male.ASF
:FULLY-SPECIFIED
:DEGREES
353
root 34.3247 15.9548 -16.1119 -192.742 -41.9023 -168.246
lowerback 1.26207 -0.648928 6.47459
upperback 3.08462 -1.02858 1.34808
thorax 2.39676 -0.431374 -2.24478
lowerneck -5.46701 7.04208 7.99764
upperneck 7.63372 9.38308 -7.81317
head 3.91792 4.51099 -3.15407
rclavicle -2.41399e-014 -1.98785e-015
rhumerus -37.5963 -7.30188 -81.7459
rradius 20.7931
rwrist 12.0765
rhand -17.3649 -9.3023
rfingers 7.12502
rthumb 8.88327 -39.0953
lclavicle -2.41399e-014 -1.98785e-015
lhumerus -32.3098 5.2687 85.1344
lradius 24.3622
lwrist 14.9952
lhand -15.7455 14.9172
lfingers 7.12502
lthumb 10.4456 44.6377
rfemur -14.3098 5.02956 25.6549
rtibia 31.0676
rfoot -11.3674 -7.47381
rtoes -4.7265
lfemur -10.6131 9.77315 -14.5711
ltibia 71.1911
lfoot -4.60446 3.44726
ltoes -12.1945
354
root 34.2188 15.9677 -16.2238 -193.048 -42.2787 -167.969
lowerback 1.40745 -0.489301 6.61931
upperback 3.12265 -0.808352 1.33927
thorax 2.37277 -0.3191 -2.33187
lowerneck -5.44792 7.07573 8.08669
upperneck 7.73781 9.4319 -7.87796
head 3.95761 4.53375 -3.18352
rclavicle 2.01518e-014 -5.1684e-015
rhumerus -37.1853 -6.50169 -82.1501
rradius 21.2004
rwrist 11.3836
rhand -17.4416 -9.3298
rfingers 7.12502
rthumb 8.80918 -39.1259
lclavicle 2.01518e-014 -5.1684e-015
lhumerus -32.5009 5.39768 84.8424
lradius 24.0109
lwrist 14.6788
lhand -15.573 14.9704
lfingers 7.12502
lthumb 10.6121 44.6824
rfemur -13.5338 5.0637 25.9215
rtibia 31.0188
rfoot -11.7253 -8.25821
rtoes -4.95709
lfemur -12.2486 10.2643 -14.7232
ltibia 71.3418
lfoot -5.92267 3.13041
ltoes -12.508
355
root 34.1111 15.9742 -16.3356 -193.449 -42.6584 -167.598
lowerback 1.55781 -0.339093 6.84418
upperback 3.17647 -0.60233 1.33617
thorax 2.36241 -0.212027 -2.4584
lowerneck -5.45116 7.1229 8.19543
upperneck 7.84684 9.49756 -7.95641
head 4.00558 4.56426 -3.21813
rclavicle -8.94283e-014 -1.98785e-014
rhumerus -36.7631 -5.68654 -82.5383
rradius 21.6389
rwrist 10.6546
rhand -17.4528 -9.33548
rfingers 7.12502
rthumb 8.7984 -39.1321
lclavicle -8.94283e-014 -1.98785e-014
lhumerus -32.6933 5.48738 84.5365
lradius 23.7234
lwrist 14.4527
lhand -15.4087 15.0442
lfingers 7.12502
lthumb 10.7706 44.748
rfemur -12.7353 5.03768 26.2524
rtibia 31.0062
rfoot -12.1529 -8.94236
rtoes -5.21628
lfemur -13.7808 10.7795 -14.8133
ltibia 71.2758
lfoot -7.24378 2.8561
ltoes -12.7843
356
root 34.0017 15.9745 -16.447 -193.93 -43.0456 -167.136
lowerback 1.70344 -0.200717 7.14301
upperback 3.23782 -0.413597 1.34203
thorax 2.36298 -0.111909 -2.6175
lowerneck -5.46306 7.18129 8.30819
upperneck 7.9589 9.5784 -8.04226
head 4.05789 4.60176 -3.25413
rclavicle 1.98785e-016 6.36111e-015
rhumerus -36.3484 -4.83329 -82.9109
rradius 22.12
rwrist 9.91891
rhand -17.455 -9.34534
rfingers 7.12502
rthumb 8.79631 -39.142
lclavicle 1.98785e-016 6.36111e-015
lhumerus -32.893 5.5408 84.2215
lradius 23.4948
lwrist 14.334
lhand -15.3135 15.0597
lfingers 7.12502
lthumb 10.8624 44.7587
rfemur -11.933 4.9349 26.637
rtibia 31.0378
rfoot -12.6545 -9.50958
rtoes -5.49944
lfemur -15.2338 11.3 -14.849
ltibia 71.0116
lfoot -8.56002 2.63705
ltoes -13.1208
357
root 33.8902 15.9692 -16.5582 -194.46 -43.4533 -166.62
lowerback 1.83406 -0.0762276 7.48333
upperback 3.3023 -0.244665 1.35073
thorax 2.37569 -0.0203365 -2.79724
lowerneck -5.48438 7.25288 8.42375
upperneck 8.07471 9.67703 -8.13368
head 4.11502 4.64753 -3.29049
rclavicle -6.2965e-014 -2.38542e-014
rhumerus -35.956 -3.94239 -83.2631
rradius 22.654
rwrist 9.18111
rhand -17.449 -9.35153
rfingers 7.12502
rthumb 8.80212 -39.148
lclavicle -6.2965e-014 -2.38542e-014
lhumerus -33.1011 5.57177 83.8955
lradius 23.3201
lwrist 14.3041
lhand -15.2686 15.026
lfingers 7.12502
lthumb 10.9057 44.7228
rfemur -11.1409 4.73902 27.036
rtibia 31.1174
rfoot -13.2192 -9.95494
rtoes -5.83925
lfemur -16.6236 11.7992 -14.8704
ltibia 70.5584
lfoot -9.84889 2.48557
ltoes -13.4385
358
root 33.7775 15.9585 -16.6685 -195.017 -43.8811 -166.049
lowerback 1.94655 0.0355547 7.85732
upperback 3.35765 -0.0931059 1.36392
thorax 2.38972 0.0633367 -2.99137
lowerneck -5.49045 7.33165 8.54328
upperneck 8.17062 9.78704 -8.24461
head 4.16598 4.69858 -3.33328
rclavicle 4.31611e-014 2.06736e-014
rhumerus -35.5841 -3.04825 -83.5818
rradius 23.2247
rwrist 8.48243
rhand -17.4615 -9.36408
rfingers 7.12502
rthumb 8.78998 -39.161
lclavicle 4.31611e-014 2.06736e-014
lhumerus -33.3101 5.58747 83.5583
lradius 23.1802
lwrist 14.3507
lhand -15.2902 14.9218
lfingers 7.12502
lthumb 10.8848 44.6197
rfemur -10.3947 4.45781 27.4452
rtibia 31.249
rfoot -13.8215 -10.3026
rtoes -6.25541
lfemur -17.9915 12.2655 -14.8818
ltibia 69.9337
lfoot -11.0967 2.41017
ltoes -13.7723
359
root 33.6638 15.9433 -16.778 -195.575 -44.3298 -165.453
lowerback 2.04451 0.137473 8.23918
upperback 3.39974 0.0459292 1.37696
thorax 2.39891 0.140856 -3.19021
lowerneck -5.50085 7.41937 8.6668
upperneck 8.26642 9.90964 -8.36558
head 4.21972 4.7553 -3.37854
rclavicle -4.40308e-014 -1.43125e-014
rhumerus -35.2428 -2.15481 -83.8701
rradius 23.8414
rwrist 7.80631
rhand -17.5058 -9.40738
rfingers 7.12502
rthumb 8.74723 -39.2061
lclavicle -4.40308e-014 -1.43125e-014
lhumerus -33.5276 5.5969 83.2079
lradius 23.079
lwrist 14.4418
lhand -15.3345 14.7817
lfingers 7.12502
lthumb 10.8422 44.4818
rfemur -9.70196 4.10101 27.8419
rtibia 31.4288
rfoot -14.4602 -10.5667
rtoes -6.66899
lfemur -19.3447 12.6891 -14.9078
ltibia 69.1426
lfoot -12.2831 2.43782
ltoes -14.0857
